<?xml version="1.0" encoding="UTF-8" standalone="no"?>
<!-- Created with Inkscape (http://www.inkscape.org/) -->

<svg
   xmlns:dc="http://purl.org/dc/elements/1.1/"
   xmlns:cc="http://creativecommons.org/ns#"
   xmlns:rdf="http://www.w3.org/1999/02/22-rdf-syntax-ns#"
   xmlns:svg="http://www.w3.org/2000/svg"
   xmlns="http://www.w3.org/2000/svg"
   xmlns:sodipodi="http://sodipodi.sourceforge.net/DTD/sodipodi-0.dtd"
   xmlns:inkscape="http://www.inkscape.org/namespaces/inkscape"
   width="744.09448819"
   height="1052.3622047"
   id="svg2"
   version="1.1"
   inkscape:version="0.48.3.1 r9886"
   sodipodi:docname="sides_slotted.svg">
  <defs
     id="defs4" />
  <sodipodi:namedview
     id="base"
     pagecolor="#ffffff"
     bordercolor="#666666"
     borderopacity="1.0"
     inkscape:pageopacity="0.0"
     inkscape:pageshadow="2"
     inkscape:zoom="0.51313132"
     inkscape:cx="136.24016"
     inkscape:cy="526.18109"
     inkscape:document-units="px"
     inkscape:current-layer="layer1"
     showgrid="false"
     inkscape:window-width="1280"
     inkscape:window-height="747"
     inkscape:window-x="0"
     inkscape:window-y="31"
     inkscape:window-maximized="1" />
  <metadata
     id="metadata7">
    <rdf:RDF>
      <cc:Work
         rdf:about="">
        <dc:format>image/svg+xml</dc:format>
        <dc:type
           rdf:resource="http://purl.org/dc/dcmitype/StillImage" />
        <dc:title></dc:title>
      </cc:Work>
    </rdf:RDF>
  </metadata>
  <g
     inkscape:label="Layer 1"
     inkscape:groupmode="layer"
     id="layer1">
    <path
       style="fill:none;stroke:#000000;stroke-width:1;stroke-miterlimit:4;stroke-opacity:1;stroke-dasharray:none"
       d="M 303.78125 14.625 L 303.78125 58.6875 L 79.71875 58.6875 L 79.71875 110.59375 L 118.15625 110.59375 C 118.91832 110.55515 119.66583 110.53125 120.4375 110.53125 C 145.13085 110.53125 165.15625 130.55665 165.15625 155.25 C 165.15625 179.94335 145.13085 199.96875 120.4375 199.96875 C 119.66583 199.96875 118.91832 199.94485 118.15625 199.90625 L 79.71875 199.90625 L 79.71875 283.3125 L 123.84375 283.3125 L 123.84375 372.625 L 79.71875 372.625 L 79.71875 641.3125 L 303.5625 641.3125 L 303.5625 597.3125 L 392.53125 597.3125 L 392.53125 641.3125 L 616.40625 641.3125 L 616.40625 58.6875 L 392.34375 58.6875 L 392.34375 14.625 L 303.78125 14.625 z "
       id="rect3788" />
  </g>
</svg>
