<?xml version="1.0" encoding="UTF-8" standalone="no"?>
<!-- Created with Inkscape (http://www.inkscape.org/) -->

<svg
   xmlns:dc="http://purl.org/dc/elements/1.1/"
   xmlns:cc="http://creativecommons.org/ns#"
   xmlns:rdf="http://www.w3.org/1999/02/22-rdf-syntax-ns#"
   xmlns:svg="http://www.w3.org/2000/svg"
   xmlns="http://www.w3.org/2000/svg"
   xmlns:sodipodi="http://sodipodi.sourceforge.net/DTD/sodipodi-0.dtd"
   xmlns:inkscape="http://www.inkscape.org/namespaces/inkscape"
   width="744.09448819"
   height="1052.3622047"
   id="svg2"
   version="1.1"
   inkscape:version="0.48.3.1 r9886"
   sodipodi:docname="sides.svg">
  <defs
     id="defs4" />
  <sodipodi:namedview
     id="base"
     pagecolor="#ffffff"
     bordercolor="#666666"
     borderopacity="1.0"
     inkscape:pageopacity="0.0"
     inkscape:pageshadow="2"
     inkscape:zoom="0.86030071"
     inkscape:cx="158.40326"
     inkscape:cy="819.09663"
     inkscape:document-units="px"
     inkscape:current-layer="layer1"
     showgrid="false"
     inkscape:window-width="1280"
     inkscape:window-height="747"
     inkscape:window-x="0"
     inkscape:window-y="31"
     inkscape:window-maximized="1" />
  <metadata
     id="metadata7">
    <rdf:RDF>
      <cc:Work
         rdf:about="">
        <dc:format>image/svg+xml</dc:format>
        <dc:type
           rdf:resource="http://purl.org/dc/dcmitype/StillImage" />
        <dc:title></dc:title>
      </cc:Work>
    </rdf:RDF>
  </metadata>
  <g
     inkscape:label="Layer 1"
     inkscape:groupmode="layer"
     id="layer1">
    <path
       style="fill:none;stroke:#000000;stroke-width:1;stroke-miterlimit:4;stroke-opacity:1;stroke-dasharray:none"
       d="M 302.03125 33.21875 L 302.03125 57.25 L 77.875 57.25 L 77.875 78.96875 L 77.96875 78.96875 L 77.96875 116.90625 L 114.96875 116.90625 C 116.86681 116.66017 118.78491 116.5 120.75 116.5 C 145.41584 116.5 165.4375 136.52166 165.4375 161.1875 C 165.4375 185.85334 145.41584 205.84375 120.75 205.84375 C 118.78491 205.84375 116.86681 205.68358 114.96875 205.4375 L 77.96875 205.4375 L 77.96875 301.90625 L 102.40625 301.90625 L 102.40625 391.21875 L 77.96875 391.21875 L 77.96875 659.90625 L 301.8125 659.90625 L 301.8125 637.0625 L 390.78125 637.0625 L 390.78125 659.90625 L 614.65625 659.90625 L 614.65625 78.96875 L 614.75 78.96875 L 614.75 57.25 L 390.59375 57.25 L 390.59375 33.21875 L 302.03125 33.21875 z "
       id="rect3788" />
  </g>
</svg>
