<?xml version="1.0" encoding="UTF-8" standalone="no"?>
<!-- Created with Inkscape (http://www.inkscape.org/) -->

<svg
   xmlns:dc="http://purl.org/dc/elements/1.1/"
   xmlns:cc="http://creativecommons.org/ns#"
   xmlns:rdf="http://www.w3.org/1999/02/22-rdf-syntax-ns#"
   xmlns:svg="http://www.w3.org/2000/svg"
   xmlns="http://www.w3.org/2000/svg"
   xmlns:sodipodi="http://sodipodi.sourceforge.net/DTD/sodipodi-0.dtd"
   xmlns:inkscape="http://www.inkscape.org/namespaces/inkscape"
   width="744.09448819"
   height="1052.3622047"
   id="svg2"
   version="1.1"
   inkscape:version="0.48.3.1 r9886"
   sodipodi:docname="sides_slotted.svg">
  <defs
     id="defs4" />
  <sodipodi:namedview
     id="base"
     pagecolor="#ffffff"
     bordercolor="#666666"
     borderopacity="1.0"
     inkscape:pageopacity="0.0"
     inkscape:pageshadow="2"
     inkscape:zoom="0.85521737"
     inkscape:cx="346.3125"
     inkscape:cy="705.79971"
     inkscape:document-units="px"
     inkscape:current-layer="layer1"
     showgrid="false"
     inkscape:window-width="1280"
     inkscape:window-height="667"
     inkscape:window-x="0"
     inkscape:window-y="31"
     inkscape:window-maximized="1" />
  <metadata
     id="metadata7">
    <rdf:RDF>
      <cc:Work
         rdf:about="">
        <dc:format>image/svg+xml</dc:format>
        <dc:type
           rdf:resource="http://purl.org/dc/dcmitype/StillImage" />
        <dc:title></dc:title>
      </cc:Work>
    </rdf:RDF>
  </metadata>
  <g
     inkscape:label="Layer 1"
     inkscape:groupmode="layer"
     id="layer1">
    <path
       style="fill:none;stroke:#0000ff;stroke-width:1;stroke-miterlimit:4;stroke-opacity:1;stroke-dasharray:none"
       d="m 659.65625,302.28125 -24.03125,0 0,-224.15625 -21.71875,0 0,0.09375 -37.9375,0 0,37 c 0.24608,1.89806 0.40625,3.81616 0.40625,5.78125 0,24.66584 -20.02166,44.6875 -44.6875,44.6875 -24.66584,0 -44.65625,-20.02166 -44.65625,-44.6875 0,-1.96509 0.16017,-3.88319 0.40625,-5.78125 l 0,-37 -96.46875,0 0,24.4375 -89.3125,0 0,-24.4375 -268.6875,0 0,223.84375 22.84375,0 0,88.96875 -22.84375,0 0,223.875 580.9375,0 0,0.0937 21.71875,0 0,-224.15625 24.03125,0 0,-88.5625 z"
       id="rect3788"
       inkscape:connector-curvature="0" />
  </g>
</svg>
